HIERARCHY
ROOT Hips
{
	OFFSET 0.00 0.00 0.00
	CHANNELS 6 Xposition Yposition Zposition Xrotation Yrotation Zrotation
	JOINT Spine
	{
		OFFSET 0.00000 0.84964 1.27446
		CHANNELS 3 Xrotation Yrotation Zrotation
		JOINT Spine1
		{
			OFFSET 0.00000 0.29508 1.67346
			CHANNELS 3 Xrotation Yrotation Zrotation
			JOINT Spine2
			{
				OFFSET 0.00000 0.14810 1.69281
				CHANNELS 3 Xrotation Yrotation Zrotation
				JOINT Spine3
				{
					OFFSET 0.00000 0.00000 1.69928
					CHANNELS 3 Xrotation Yrotation Zrotation
					JOINT Neck
					{
						OFFSET 0.00000 -0.63723 4.46061
						CHANNELS 3 Xrotation Yrotation Zrotation
						JOINT Head
						{
							OFFSET 0.00000 -0.40573 2.30101
							CHANNELS 3 Xrotation Yrotation Zrotation
							End Site
							{
								OFFSET 0.00000 0.00000 2.75071
							}
						}
					}
					JOINT RightShoulder
					{
						OFFSET -0.72014 -1.20022 3.88874
						CHANNELS 3 Xrotation Yrotation Zrotation
						JOINT RightArm
						{
							OFFSET -3.57668 0.00000 0.00000
							CHANNELS 3 Xrotation Yrotation Zrotation
							JOINT RightForeArm
							{
								OFFSET -5.92485 0.00000 0.00000
								CHANNELS 3 Xrotation Yrotation Zrotation
								JOINT RightHand
								{
									OFFSET -6.63013 0.00000 0.00000
									CHANNELS 3 Xrotation Yrotation Zrotation
									JOINT RightHandEnd
									{
										OFFSET -1.65321 0.00000 0.00000
										CHANNELS 3 Xrotation Yrotation Zrotation
										End Site
										{
											OFFSET -1.65321 0.00000 0.00000
										}
									}
									JOINT RightHandThumb1
									{
										OFFSET -0.66129 -1.10214 -0.44086
										CHANNELS 3 Yrotation Xrotation Zrotation
										End Site
										{
											OFFSET -1.59688 -0.42788 0.00000
										}
									}
								}
							}
						}
					}
					JOINT LeftShoulder
					{
						OFFSET 0.72014 -1.20022 3.88874
						CHANNELS 3 Xrotation Yrotation Zrotation
						JOINT LeftArm
						{
							OFFSET 3.57668 0.00000 0.00000
							CHANNELS 3 Xrotation Yrotation Zrotation
							JOINT LeftForeArm
							{
								OFFSET 5.92485 0.00000 0.00000
								CHANNELS 3 Xrotation Yrotation Zrotation
								JOINT LeftHand
								{
									OFFSET 6.63013 0.00000 0.00000
									CHANNELS 3 Xrotation Yrotation Zrotation
									JOINT LeftHandEnd
									{
										OFFSET 1.65321 0.00000 0.00000
										CHANNELS 3 Xrotation Yrotation Zrotation
										End Site
										{
											OFFSET 1.65321 0.00000 0.00000
										}
									}
									JOINT LeftHandThumb1
									{
										OFFSET 0.66129 -1.10214 -0.44086
										CHANNELS 3 Yrotation Xrotation Zrotation
										End Site
										{
											OFFSET 1.59688 -0.42788 0.00000
										}
									}
								}
							}
						}
					}
				}
			}
		}
	}
	JOINT RightUpLeg
	{
		OFFSET -2.13640 0.00000 -0.62412
		CHANNELS 3 Xrotation Yrotation Zrotation
		JOINT RightLeg
		{
			OFFSET 0.00000 0.00000 -11.49360
			CHANNELS 3 Xrotation Yrotation Zrotation
			JOINT RightFoot
			{
				OFFSET 0.00000 0.00000 -8.79036
				CHANNELS 3 Xrotation Yrotation Zrotation
				JOINT RightToeBase
				{
					OFFSET 0.00000 -3.94625 -1.43632
					CHANNELS 3 Xrotation Yrotation Zrotation
					End Site
					{
						OFFSET 0.00000 -1.72833 -0.00000
					}
				}
			}
		}
	}
	JOINT LeftUpLeg
	{
		OFFSET 2.13640 0.00000 -0.62412
		CHANNELS 3 Xrotation Yrotation Zrotation
		JOINT LeftLeg
		{
			OFFSET 0.00000 0.00000 -11.49360
			CHANNELS 3 Xrotation Yrotation Zrotation
			JOINT LeftFoot
			{
				OFFSET 0.00000 0.00000 -8.79036
				CHANNELS 3 Xrotation Yrotation Zrotation
				JOINT LeftToeBase
				{
					OFFSET 0.00000 -3.94625 -1.43632
					CHANNELS 3 Xrotation Yrotation Zrotation
					End Site
					{
						OFFSET 0.00000 -1.72833 -0.00000
					}
				}
			}
		}
	}
}
MOTION
Frames: 16
Frame Time: 0.008342
 -2.5838 -47.0684 23.5896 -0.7848 -2.2158 179.7728 1.9798 -4.6317 0.2389 -0.3505 -1.4706 -0.8214 3.6729 -0.7912 -4.6998 2.2672 8.0165 -2.8938 3.8887 -3.0658 -10.1302 0.4445 2.4892 -26.7986 -14.1016 3.9055 -4.6654 -9.7996 -19.2845 -3.9955 0.0000 0.0000 12.5704 22.2273 10.2062 -15.5824 0.0000 0.0000 0.0000 -0.0000 -0.0000 0.0000 -1.5874 -5.9963 11.7145 -34.1807 28.4824 17.1227 -0.0000 -0.0000 -6.8276 -4.0391 -17.3789 11.5616 -0.0000 0.0000 -0.0000 -0.0000 0.0000 0.0000 -1.1767 -3.1917 -55.6824 0.4082 0.0000 0.0000 -4.8345 -1.6919 54.4944 1.5797 0.0000 0.0000 3.3360 1.6173 24.8640 -2.2631 0.0000 -0.0000 -2.7096 -0.6515 -7.4703 -22.3575 0.0000 -0.0000
 -2.5810 -47.0630 23.5896 -0.7988 -2.2234 179.7792 1.9702 -4.6262 0.2429 -0.3591 -1.4667 -0.8195 3.6733 -0.7829 -4.7091 2.2591 8.0218 -2.8967 3.8300 -3.0457 -10.1320 0.3921 2.4634 -26.7884 -14.1275 3.8783 -4.6934 -9.7627 -19.2673 -3.9470 0.0000 0.0000 12.5571 22.1924 10.2276 -15.5647 -0.0000 0.0000 -0.0000 -0.0000 -0.0000 0.0000 -1.6059 -5.9833 11.6993 -34.1715 28.4259 17.0757 -0.0000 -0.0000 -6.8389 -4.0165 -17.3824 11.5698 0.0000 -0.0000 -0.0000 -0.0000 0.0000 0.0000 -1.1747 -3.2105 -55.6625 0.3963 0.0000 0.0000 -4.8188 -1.7138 54.4633 1.6241 0.0000 0.0000 3.3641 1.6127 24.8047 -2.3523 0.0000 -0.0000 -2.6532 -0.6344 -7.4507 -22.3153 0.0000 -0.0000
 -2.5743 -47.0587 23.5894 -0.8546 -2.2328 179.7553 1.9434 -4.5951 0.2928 -0.3818 -1.4721 -0.8180 3.6758 -0.7637 -4.7281 2.2439 8.0197 -2.8970 3.7512 -3.0341 -10.1381 0.3244 2.4285 -26.7736 -14.1645 3.8207 -4.7320 -9.7276 -19.2335 -3.9020 0.0000 0.0000 12.5480 22.1490 10.2519 -15.5427 0.0000 0.0000 0.0000 -0.0000 0.0000 -0.0000 -1.6277 -5.9727 11.6750 -34.1604 28.3486 17.0033 -0.0000 -0.0000 -6.8498 -3.9935 -17.3895 11.5780 0.0000 -0.0000 -0.0000 -0.0000 0.0000 0.0000 -1.1411 -3.3510 -54.4514 0.0632 0.0000 0.0000 -4.6102 -1.6747 53.2849 1.6709 0.0000 0.0000 3.3496 1.5972 24.7673 -2.4491 0.0000 -0.0000 -2.5883 -0.6099 -7.4331 -22.2638 0.0000 -0.0000
 -2.5698 -47.0507 23.5894 -0.9042 -2.2520 179.7788 1.8962 -4.5965 0.2935 -0.3916 -1.4629 -0.8164 3.6747 -0.7504 -4.7468 2.2325 8.0309 -2.9047 3.6574 -3.0081 -10.1389 0.2448 2.3839 -26.7501 -14.2062 3.7627 -4.7670 -9.6890 -19.1947 -3.8551 0.0000 0.0000 12.5375 22.0921 10.2767 -15.5115 -0.0000 -0.0000 0.0000 0.0000 0.0000 -0.0000 -1.6556 -5.9488 11.6583 -34.1355 28.2560 16.9112 -0.0000 -0.0000 -6.8657 -3.9686 -17.3982 11.5856 0.0000 -0.0000 -0.0000 -0.0000 -0.0000 -0.0000 -1.1638 -3.3925 -54.4246 0.0297 0.0000 0.0000 -4.5692 -1.7147 53.2225 1.7444 0.0000 0.0000 3.3563 1.5789 24.6709 -2.5702 0.0000 -0.0000 -2.5130 -0.5903 -7.4108 -22.2027 0.0000 -0.0000
 -2.5646 -47.0414 23.5895 -0.9556 -2.2743 179.8091 1.8481 -4.5964 0.2946 -0.4026 -1.4533 -0.8159 3.6734 -0.7343 -4.7701 2.2173 8.0444 -2.9127 3.5491 -2.9837 -10.1392 0.1550 2.3343 -26.7188 -14.2537 3.6900 -4.8009 -9.6537 -19.1450 -3.8180 0.0000 0.0000 12.5285 22.0233 10.3017 -15.4709 0.0000 0.0000 -0.0000 -0.0000 -0.0000 0.0000 -1.6855 -5.9280 11.6391 -34.1072 28.1534 16.8084 -0.0000 -0.0000 -6.8869 -3.9426 -17.4115 11.5927 -0.0000 0.0000 0.0000 0.0000 -0.0000 0.0000 -1.1854 -3.4389 -54.3915 -0.0040 0.0000 -0.0000 -4.5247 -1.7625 53.1445 1.8286 0.0000 0.0000 3.3680 1.5566 24.5718 -2.7044 0.0000 -0.0000 -2.4301 -0.5692 -7.3979 -22.1336 0.0000 -0.0000
 -2.5589 -47.0312 23.5896 -1.0158 -2.2963 179.8510 1.7916 -4.5957 0.2897 -0.4157 -1.4406 -0.8136 3.6711 -0.7139 -4.7996 2.1998 8.0541 -2.9175 3.4298 -2.9535 -10.1412 0.0573 2.2770 -26.6809 -14.3107 3.6193 -4.8366 -9.6221 -19.0999 -3.7960 0.0000 0.0000 12.5231 21.9471 10.3297 -15.4245 0.0000 0.0000 -0.0000 -0.0000 -0.0000 0.0000 -1.7181 -5.8964 11.6123 -34.0718 28.0311 16.6892 -0.0000 -0.0000 -6.9106 -3.9171 -17.4235 11.6000 0.0000 -0.0000 0.0000 -0.0000 0.0000 0.0000 -1.2143 -3.4848 -54.3976 -0.0344 0.0000 -0.0000 -4.4835 -1.8173 53.0916 1.9203 0.0000 0.0000 3.3718 1.5329 24.4576 -2.8393 0.0000 -0.0000 -2.3467 -0.5507 -7.3840 -22.0607 0.0000 -0.0000
 -2.5522 -47.0206 23.5898 -1.0734 -2.3236 179.8930 1.7422 -4.5940 0.2972 -0.4295 -1.4294 -0.8124 3.6644 -0.6911 -4.8339 2.1814 8.0690 -2.9275 3.3012 -2.9340 -10.1412 -0.0438 2.2173 -26.6349 -14.3686 3.5274 -4.8727 -9.5914 -19.0424 -3.7786 0.0000 0.0000 12.5138 21.8533 10.3529 -15.3706 -0.0000 -0.0000 0.0000 -0.0000 -0.0000 0.0000 -1.7510 -5.8782 11.5902 -34.0275 27.9121 16.5550 -0.0000 -0.0000 -6.9330 -3.8935 -17.4413 11.6043 -0.0000 -0.0000 -0.0000 -0.0000 0.0000 0.0000 -1.2372 -3.5409 -54.2900 -0.0738 0.0000 -0.0000 -4.4341 -1.8696 52.9260 2.0130 0.0000 0.0000 3.3791 1.5011 24.3571 -2.9738 0.0000 -0.0000 -2.2675 -0.5339 -7.3829 -21.9871 0.0000 -0.0000
 -2.5456 -47.0098 23.5899 -1.1536 -2.3517 179.9489 1.6619 -4.5953 0.2947 -0.4393 -1.4143 -0.8116 3.6581 -0.6687 -4.8692 2.1642 8.0855 -2.9390 3.1681 -2.9162 -10.1407 -0.1465 2.1545 -26.5818 -14.4300 3.4300 -4.9081 -9.5665 -18.9829 -3.7763 0.0000 0.0000 12.5058 21.7483 10.3726 -15.3091 -0.0000 -0.0000 -0.0000 -0.0000 -0.0000 0.0000 -1.7838 -5.8530 11.5696 -33.9741 27.7857 16.4034 -0.0000 -0.0000 -6.9557 -3.8723 -17.4617 11.6099 -0.0000 -0.0000 0.0000 -0.0000 -0.0000 0.0000 -1.2839 -3.5956 -54.2783 -0.1066 0.0000 -0.0000 -4.3941 -1.9242 52.8401 2.1041 0.0000 0.0000 3.3578 1.4665 24.2509 -3.0945 0.0000 -0.0000 -2.1990 -0.5249 -7.3870 -21.9165 0.0000 -0.0000
 -2.5392 -46.9982 23.5901 -1.1919 -2.3751 -179.9851 1.6260 -4.5915 0.2893 -0.4531 -1.4005 -0.8087 3.6499 -0.6391 -4.9121 2.1445 8.0951 -2.9442 3.0389 -2.8969 -10.1416 -0.2471 2.0888 -26.5233 -14.4906 3.3447 -4.9413 -9.5453 -18.9366 -3.7925 0.0000 0.0000 12.4973 21.6337 10.3874 -15.2461 -0.0000 0.0000 -0.0000 -0.0000 -0.0000 -0.0000 -1.8151 -5.8347 11.5372 -33.9204 27.6591 16.2626 -0.0000 -0.0000 -6.9807 -3.8491 -17.4753 11.6145 -0.0000 0.0000 -0.0000 0.0000 -0.0000 0.0000 -1.2817 -3.6493 -54.2848 -0.1507 0.0000 -0.0000 -4.3591 -1.9782 52.7651 2.1878 0.0000 0.0000 3.3794 1.4364 24.1483 -3.2088 0.0000 -0.0000 -2.1377 -0.5189 -7.3975 -21.8495 0.0000 -0.0000
 -2.5327 -46.9869 23.5902 -1.2405 -2.4022 -179.9115 1.5727 -4.5935 0.2810 -0.4625 -1.3826 -0.8076 3.6403 -0.6135 -4.9524 2.1280 8.1097 -2.9541 2.9123 -2.8868 -10.1407 -0.3427 2.0247 -26.4591 -14.5474 3.2514 -4.9718 -9.5290 -18.8883 -3.8212 0.0000 0.0000 12.4861 21.5048 10.3941 -15.1767 -0.0000 -0.0000 0.0000 -0.0000 -0.0000 0.0000 -1.8418 -5.8191 11.5126 -33.8586 27.5394 16.1071 -0.0000 -0.0000 -7.0014 -3.8295 -17.4918 11.6196 -0.0000 -0.0000 0.0000 -0.0000 -0.0000 0.0000 -1.2915 -3.7051 -54.3294 -0.1893 0.0000 -0.0000 -4.3319 -2.0274 52.7215 2.2609 0.0000 0.0000 3.3819 1.3998 24.0550 -3.3011 0.0000 -0.0000 -2.0957 -0.5217 -7.4169 -21.7911 0.0000 -0.0000
 -2.5264 -46.9761 23.5902 -1.2754 -2.4187 -179.8399 1.5347 -4.5813 0.2777 -0.4741 -1.3676 -0.8044 3.6314 -0.5843 -4.9956 2.1103 8.1171 -2.9594 2.7930 -2.8785 -10.1411 -0.4308 1.9612 -26.3909 -14.5999 3.1669 -5.0026 -9.5187 -18.8501 -3.8634 0.0000 0.0000 12.4726 21.3663 10.3903 -15.1054 -0.0000 -0.0000 -0.0000 -0.0000 -0.0000 0.0000 -1.8679 -5.8103 11.4808 -33.7978 27.4280 15.9623 -0.0000 -0.0000 -7.0212 -3.8079 -17.5076 11.6249 -0.0000 0.0000 -0.0000 0.0000 -0.0000 0.0000 -1.2915 -3.7448 -54.3313 -0.2133 0.0000 -0.0000 -4.3287 -2.0664 52.6412 2.3195 0.0000 0.0000 3.3912 1.3729 23.9797 -3.3749 0.0000 -0.0000 -2.0667 -0.5297 -7.4432 -21.7409 0.0000 -0.0000
 -2.5204 -46.9661 23.5902 -1.3257 -2.4370 -179.7643 1.4728 -4.5741 0.2712 -0.4820 -1.3506 -0.8025 3.6231 -0.5582 -5.0341 2.0972 8.1290 -2.9674 2.6817 -2.8779 -10.1417 -0.5111 1.8996 -26.3184 -14.6464 3.0783 -5.0335 -9.5121 -18.8137 -3.9144 0.0000 0.0000 12.4555 21.2160 10.3758 -15.0311 0.0000 0.0000 0.0000 -0.0000 -0.0000 0.0000 -1.8897 -5.8017 11.4525 -33.7344 27.3228 15.8118 -0.0000 -0.0000 -7.0364 -3.7877 -17.5209 11.6312 0.0000 0.0000 -0.0000 -0.0000 0.0000 -0.0000 -1.3123 -3.7810 -54.3873 -0.2228 0.0000 -0.0000 -4.3383 -2.0980 52.6124 2.3630 0.0000 0.0000 3.3733 1.3415 23.9135 -3.4220 0.0000 -0.0000 -2.0586 -0.5463 -7.4739 -21.7014 0.0000 -0.0000
 -2.5148 -46.9564 23.5900 -1.3463 -2.4444 -179.6916 1.4395 -4.5532 0.2690 -0.4914 -1.3367 -0.8003 3.6168 -0.5306 -5.0749 2.0826 8.1354 -2.9713 2.5814 -2.8798 -10.1392 -0.5806 1.8411 -26.2451 -14.6830 2.9986 -5.0605 -9.5104 -18.7874 -3.9743 0.0000 0.0000 12.4337 21.0564 10.3472 -14.9574 0.0000 0.0000 0.0000 -0.0000 -0.0000 -0.0000 -1.9124 -5.8035 11.4227 -33.6695 27.2320 15.6743 -0.0000 -0.0000 -7.0494 -3.7666 -17.5307 11.6387 0.0000 -0.0000 -0.0000 0.0000 -0.0000 0.0000 -1.3033 -3.8041 -54.4048 -0.2283 0.0000 -0.0000 -4.3671 -2.1190 52.5527 2.3905 0.0000 0.0000 3.3816 1.3214 23.8642 -3.4552 0.0000 -0.0000 -2.0612 -0.5655 -7.5096 -21.6698 0.0000 -0.0000
 -2.5095 -46.9473 23.5897 -1.3645 -2.4510 -179.6208 1.4033 -4.5321 0.2668 -0.4995 -1.3226 -0.7979 3.6110 -0.5052 -5.1112 2.0706 8.1418 -2.9756 2.4906 -2.8851 -10.1365 -0.6401 1.7852 -26.1688 -14.7111 2.9226 -5.0893 -9.5123 -18.7683 -4.0369 0.0000 0.0000 12.4060 20.8887 10.3083 -14.8808 0.0000 0.0000 0.0000 -0.0000 -0.0000 0.0000 -1.9312 -5.8078 11.3948 -33.6061 27.1517 15.5404 -0.0000 -0.0000 -7.0590 -3.7463 -17.5394 11.6488 0.0000 -0.0000 0.0000 0.0000 -0.0000 -0.0000 -1.2923 -3.8265 -54.4079 -0.2352 0.0000 -0.0000 -4.4006 -2.1308 52.4835 2.4028 0.0000 0.0000 3.3855 1.3010 23.8259 -3.4709 0.0000 -0.0000 -2.0786 -0.5893 -7.5471 -21.6470 0.0000 -0.0000
 -2.5048 -46.9384 23.5892 -1.3764 -2.4536 -179.5531 1.3676 -4.5085 0.2653 -0.5060 -1.3084 -0.7963 3.6049 -0.4829 -5.1433 2.0612 8.1484 -2.9817 2.4088 -2.8905 -10.1304 -0.6887 1.7315 -26.0900 -14.7319 2.8526 -5.1183 -9.5151 -18.7582 -4.0969 0.0000 0.0000 12.3715 20.7163 10.2578 -14.8046 0.0000 0.0000 0.0000 0.0000 -0.0000 -0.0000 -1.9472 -5.8150 11.3695 -33.5495 27.0806 15.4172 -0.0000 -0.0000 -7.0645 -3.7226 -17.5428 11.6572 -0.0000 0.0000 0.0000 -0.0000 0.0000 0.0000 -1.2839 -3.8324 -54.4908 -0.2084 0.0000 -0.0000 -4.4606 -2.1399 52.4983 2.4031 0.0000 0.0000 3.3919 1.2852 23.7952 -3.4752 0.0000 -0.0000 -2.1055 -0.6159 -7.5839 -21.6328 0.0000 -0.0000
 -2.5004 -46.9299 23.5887 -1.3860 -2.4547 -179.4897 1.3283 -4.4826 0.2622 -0.5106 -1.2960 -0.7940 3.5999 -0.4624 -5.1718 2.0516 8.1548 -2.9854 2.3348 -2.8973 -10.1229 -0.7267 1.6817 -26.0082 -14.7440 2.7826 -5.1486 -9.5226 -18.7497 -4.1568 0.0000 0.0000 12.3346 20.5428 10.1932 -14.7310 -0.0000 -0.0000 -0.0000 -0.0000 -0.0000 0.0000 -1.9640 -5.8228 11.3443 -33.4926 27.0153 15.3009 -0.0000 -0.0000 -7.0686 -3.7044 -17.5422 11.6662 0.0000 0.0000 0.0000 -0.0000 0.0000 0.0000 -1.2715 -3.8393 -54.5420 -0.1902 0.0000 -0.0000 -4.5183 -2.1422 52.4879 2.3932 0.0000 0.0000 3.3979 1.2708 23.7703 -3.4718 0.0000 -0.0000 -2.1386 -0.6434 -7.6191 -21.6191 0.0000 -0.0000
